# xmcd CD database file
# Copyright (C) 1993-1998 Ti Kan
#
# Track frame offsets:
#  150
#  12533
#  26998
#  39128
#  59935
#  74895
#  90900
#  111568
#  122533
#  131923
#  148478
#
# Disc length: 2098 seconds
#
# Revision: 1
# Processed by: cddbd v1.4b41PL1 Copyright (c) Steve Scherf et al.
# Submitted via: CDWizzard Release:4.35
#
DISCID=b208300b
DTITLE=Josh Graves - Josh Graves Master of the Dobro Guitar Plays Country
DTITLE=Classics
DYEAR=1900
DGENRE=
TTITLE0=Waltz Across Texas
TTITLE1=Legend in my Time
TTITLE2=He Stopped Loving Her Today
TTITLE3=Blue Eyes Crying in  the Rain
TTITLE4=FireballMail/Bringing in the Georgia Mail
TTITLE5=Silver Wings
TTITLE6=Cold Cold Heart
TTITLE7=Oh Lonesome Me
TTITLE8=Rocky  Top
TTITLE9=Maidens Prayer
TTITLE10=Wabash Cannonball
EXTD=
EXTT0=
EXTT1=
EXTT2=
EXTT3=
EXTT4=
EXTT5=
EXTT6=
EXTT7=
EXTT8=
EXTT9=
EXTT10=
PLAYORDER=
